<svg xmlns="http://www.w3.org/2000/svg" xmlns:xlink="http://www.w3.org/1999/xlink" width="1080" zoomAndPan="magnify" viewBox="0 0 810 809.999993" height="1080" preserveAspectRatio="xMidYMid meet" version="1.0"><defs><g/><clipPath id="8af4f4ef74"><path d="M 576.230469 309.300781 L 774.101562 309.300781 L 774.101562 500.550781 L 576.230469 500.550781 Z M 576.230469 309.300781 " clip-rule="nonzero"/></clipPath></defs><g clip-path="url(#8af4f4ef74)"><path fill="#00a0e3" d="M 727.410156 500.527344 C 727.925781 500.527344 728.445312 500.398438 728.914062 500.140625 C 729.902344 499.59375 730.519531 498.550781 730.519531 497.417969 L 730.519531 464.261719 L 745.777344 464.261719 C 761.394531 464.261719 774.101562 451.554688 774.101562 435.933594 L 774.101562 337.789062 C 774.101562 322.167969 761.394531 309.460938 745.777344 309.460938 L 604.566406 309.460938 C 588.945312 309.460938 576.238281 322.167969 576.238281 337.789062 L 576.238281 435.933594 C 576.238281 451.554688 588.945312 464.261719 604.566406 464.261719 L 668.882812 464.261719 C 687.839844 476.195312 706.792969 488.121094 725.75 500.050781 C 726.257812 500.367188 726.832031 500.527344 727.410156 500.527344 Z M 727.410156 500.527344 " fill-opacity="1" fill-rule="nonzero"/></g><g fill="#ffffff" fill-opacity="1"><g transform="translate(598.354725, 427.195894)"><g><path d="M 70.71875 -82.609375 L 59.578125 -82.609375 L 31.09375 -45.828125 L 31.09375 -82.609375 L 7.0625 -82.609375 L 7.0625 0 L 31.09375 0 L 31.09375 -32.328125 L 34.5625 -36.171875 L 53.875 0 L 80.515625 0 L 50.15625 -56.484375 Z M 70.71875 -82.609375 "/></g></g></g><g fill="#ffffff" fill-opacity="1"><g transform="translate(681.341909, 427.195894)"><g><path d="M 66.765625 -82.609375 L 6.1875 -82.609375 L 6.1875 -73.703125 L 39.765625 -73.703125 L 0.625 -8.796875 L 0.625 0 L 63.78125 0 L 63.78125 -8.796875 L 27.125 -8.796875 L 66.765625 -74.5625 Z M 66.765625 -82.609375 "/></g></g></g><g fill="#000000" fill-opacity="1"><g transform="translate(35.894233, 434.280681)"><g><path d="M 7.546875 26.09375 L 36 26.09375 L 36 -6.28125 C 41.8125 0.46875 45.4375 2.046875 54.234375 2.046875 C 71.53125 2.046875 81.75 -13.046875 81.75 -38.671875 C 81.75 -50.3125 79.390625 -61.15625 75.296875 -67.28125 C 70.421875 -74.828125 63.03125 -79.390625 55.171875 -79.390625 C 47.3125 -79.390625 41.5 -75.921875 36 -67.59375 L 36 -79.234375 C 22.953125 -77.65625 20.90625 -77.5 7.546875 -77.1875 Z M 45.28125 -67.28125 C 51.09375 -67.28125 52.984375 -60.359375 52.984375 -38.671875 C 52.984375 -16.03125 51.09375 -9.125 44.640625 -9.125 C 38.046875 -9.125 35.6875 -16.65625 35.6875 -36.9375 C 35.6875 -57.375 38.828125 -67.28125 45.28125 -67.28125 Z M 45.28125 -67.28125 "/></g></g></g><g fill="#000000" fill-opacity="1"><g transform="translate(121.727264, 434.280681)"><g><path d="M 83.3125 -9.75 C 81.28125 -8.953125 80.171875 -8.640625 79.078125 -8.640625 C 75.765625 -8.640625 74.359375 -10.6875 74.359375 -15.40625 L 74.359375 -62.40625 C 74.359375 -73.25 62.71875 -79.546875 42.28125 -79.546875 C 21.21875 -79.546875 8.640625 -72.625 8.640625 -61.15625 C 8.640625 -59.265625 8.796875 -57.0625 9.28125 -54.390625 L 23.109375 -51.71875 C 21.53125 -56.125 21.0625 -58.640625 21.0625 -60.84375 C 21.0625 -67.59375 27.03125 -72.9375 34.578125 -72.9375 C 41.8125 -72.9375 46.375 -68.546875 46.375 -61.625 C 46.375 -57.0625 44.484375 -53.765625 40.71875 -51.25 C 37.578125 -49.359375 35.375 -48.421875 25.78125 -45.4375 C 9.59375 -40.40625 3.453125 -33.796875 3.453125 -21.21875 C 3.453125 -7.078125 12.890625 1.578125 28.296875 1.578125 C 37.734375 1.578125 42.921875 -0.9375 48.109375 -7.703125 C 50.46875 -1.09375 55.015625 1.25 65.875 1.25 C 73.578125 1.25 78.125 0.3125 85.984375 -2.828125 Z M 46.21875 -24.359375 C 46.21875 -15.5625 42.609375 -9.125 37.578125 -9.125 C 33.171875 -9.125 31.4375 -13.046875 31.4375 -23.421875 C 31.4375 -28.296875 32.390625 -33.171875 33.796875 -35.84375 C 34.90625 -38.046875 36.46875 -39.296875 40.09375 -41.5 C 43.390625 -43.390625 43.859375 -43.859375 46.21875 -46.53125 Z M 46.21875 -24.359375 "/></g></g></g><g fill="#000000" fill-opacity="1"><g transform="translate(205.04505, 434.280681)"><g><path d="M 7.546875 0 L 14.625 0 L 21.6875 -12.890625 C 30.1875 -1.734375 36.3125 1.734375 47.625 1.734375 C 57.84375 1.734375 65.078125 -1.09375 70.421875 -7.078125 C 76.875 -14.3125 80.953125 -27.515625 80.953125 -41.1875 C 80.953125 -64.609375 70.265625 -79.390625 53.296875 -79.390625 C 45.75 -79.390625 42.28125 -77.34375 36 -69.171875 L 36 -106.421875 C 22.796875 -105.484375 20.90625 -105.328125 7.546875 -104.859375 Z M 44.796875 -68.0625 C 50.46875 -68.0625 52.5 -61.46875 52.5 -42.609375 C 52.5 -28.609375 51.71875 -18.859375 50.46875 -14.78125 C 49.515625 -12.109375 47 -10.0625 44.484375 -10.0625 C 42.28125 -10.0625 40.25 -11.46875 38.515625 -14.140625 C 36.3125 -17.921875 35.53125 -24.046875 35.53125 -40.5625 C 35.53125 -52.984375 36.3125 -59.265625 38.359375 -63.03125 C 39.921875 -66.1875 42.28125 -68.0625 44.796875 -68.0625 Z M 44.796875 -68.0625 "/></g></g></g><g fill="#000000" fill-opacity="1"><g transform="translate(290.092069, 434.280681)"><g><path d="M 35.6875 -106.421875 C 22.484375 -105.171875 20.59375 -105.015625 7.546875 -104.859375 L 7.546875 0 L 35.6875 0 Z M 35.6875 -106.421875 "/></g></g></g><g fill="#000000" fill-opacity="1"><g transform="translate(333.322968, 434.280681)"><g><path d="M 22.171875 -107.53125 C 13.984375 -107.53125 9.125 -103.75 9.125 -97.46875 C 9.125 -91.015625 13.828125 -87.25 22.171875 -87.25 C 30.5 -87.25 35.21875 -91.015625 35.21875 -97.46875 C 35.21875 -103.75 30.34375 -107.53125 22.171875 -107.53125 Z M 8.015625 0 L 36.46875 0 L 36.46875 -79.390625 C 23.265625 -77.5 21.21875 -77.34375 8.015625 -77.1875 Z M 8.015625 0 "/></g></g></g><g fill="#000000" fill-opacity="1"><g transform="translate(377.968716, 434.280681)"><g><path d="M 77.03125 -77.34375 L 65.875 -77.34375 L 36 -40.875 L 36 -106.578125 C 22.796875 -105.171875 20.75 -105.015625 7.546875 -104.859375 L 7.546875 0 L 36 0 L 36 -27.671875 L 41.1875 -34.109375 L 54.546875 0 L 84.109375 0 L 61.15625 -57.21875 Z M 77.03125 -77.34375 "/></g></g></g><g fill="#000000" fill-opacity="1"><g transform="translate(461.443693, 434.280681)"><g><path d="M 22.171875 -107.53125 C 13.984375 -107.53125 9.125 -103.75 9.125 -97.46875 C 9.125 -91.015625 13.828125 -87.25 22.171875 -87.25 C 30.5 -87.25 35.21875 -91.015625 35.21875 -97.46875 C 35.21875 -103.75 30.34375 -107.53125 22.171875 -107.53125 Z M 8.015625 0 L 36.46875 0 L 36.46875 -79.390625 C 23.265625 -77.5 21.21875 -77.34375 8.015625 -77.1875 Z M 8.015625 0 "/></g></g></g><g fill="#000000" fill-opacity="1"><g transform="translate(506.089442, 434.280681)"><g><path d="M 22.640625 -25.625 C 15.09375 -25.625 8.953125 -19.65625 8.953125 -12.265625 C 8.953125 -4.71875 14.9375 1.421875 22.484375 1.421875 C 30.03125 1.421875 36 -4.71875 36 -12.109375 C 36 -19.5 29.875 -25.625 22.640625 -25.625 Z M 22.640625 -25.625 "/></g></g></g><g fill="#000000" fill-opacity="1"><g transform="translate(550.909477, 434.280681)"><g/></g></g></svg>